<svg width="173" height="23" viewBox="0 0 173 23" fill="none" xmlns="http://www.w3.org/2000/svg">
<path d="M0.9 11.524C0.9 9.604 1.236 7.852 1.908 6.268C2.58 4.66 3.492 3.388 4.644 2.452C5.796 1.492 7.068 1.012 8.46 1.012C9.492 1.012 10.476 1.288 11.412 1.84C12.348 2.368 13.176 3.124 13.896 4.108C14.616 5.068 15.18 6.184 15.588 7.456C15.996 8.728 16.2 10.084 16.2 11.524C16.2 12.964 15.996 14.32 15.588 15.592C15.18 16.864 14.616 17.992 13.896 18.976C13.176 19.936 12.348 20.692 11.412 21.244C10.476 21.772 9.492 22.036 8.46 22.036C7.068 22.036 5.796 21.568 4.644 20.632C3.492 19.672 2.58 18.4 1.908 16.816C1.236 15.232 0.9 13.468 0.9 11.524ZM6.408 11.38C6.408 12.772 6.504 14.056 6.696 15.232C6.888 16.384 7.152 17.308 7.488 18.004C7.824 18.676 8.196 19.012 8.604 19.012C9.012 19.012 9.384 18.676 9.72 18.004C10.056 17.308 10.32 16.384 10.512 15.232C10.704 14.056 10.8 12.772 10.8 11.38C10.8 9.964 10.704 8.68 10.512 7.528C10.32 6.376 10.056 5.452 9.72 4.756C9.384 4.06 9.012 3.712 8.604 3.712C8.196 3.712 7.824 4.06 7.488 4.756C7.152 5.452 6.888 6.376 6.696 7.528C6.504 8.68 6.408 9.964 6.408 11.38ZM21.1179 1.192C21.1179 1.192 21.2739 1.216 21.5859 1.264C21.8979 1.288 22.2459 1.396 22.6299 1.588C23.0379 1.756 23.3859 2.068 23.6739 2.524C23.9619 2.956 24.0819 3.592 24.0339 4.432C24.0099 4.984 23.9739 5.728 23.9259 6.664C23.9019 7.576 23.8899 8.584 23.8899 9.688C23.8899 10.768 23.9139 11.848 23.9619 12.928C24.0339 14.008 24.1419 15.004 24.2859 15.916C24.4539 16.828 24.6699 17.56 24.9339 18.112C25.2219 18.64 25.5699 18.892 25.9779 18.868C26.4099 18.844 26.7339 18.556 26.9499 18.004C27.1659 17.428 27.3099 16.708 27.3819 15.844C27.4539 14.956 27.4779 14.02 27.4539 13.036C27.4299 12.052 27.3819 11.116 27.3099 10.228C27.2379 9.316 27.1659 8.572 27.0939 7.996C27.0459 7.396 27.0099 7.06 26.9859 6.988C26.9619 6.892 26.9259 6.688 26.8779 6.376C26.8299 6.064 26.8539 5.728 26.9499 5.368C27.0459 5.008 27.2859 4.684 27.6699 4.396C28.0779 4.108 28.7139 3.928 29.5779 3.856C30.4419 3.784 31.1139 3.892 31.5939 4.18C32.0739 4.468 32.4099 4.816 32.6019 5.224C32.8179 5.632 32.9379 5.992 32.9619 6.304C33.0099 6.616 33.0339 6.772 33.0339 6.772C33.0339 6.772 33.0699 7.048 33.1419 7.6C33.2379 8.152 33.3099 8.884 33.3579 9.796C33.4299 10.684 33.4299 11.668 33.3579 12.748C33.3099 13.828 33.1539 14.92 32.8899 16.024C32.6499 17.104 32.2539 18.1 31.7019 19.012C31.1499 19.9 30.4059 20.62 29.4699 21.172C28.5339 21.724 27.3579 22 25.9419 22C24.5259 22 23.3259 21.712 22.3419 21.136C21.3819 20.536 20.5899 19.756 19.9659 18.796C19.3659 17.812 18.8979 16.72 18.5619 15.52C18.2499 14.32 18.0339 13.096 17.9139 11.848C17.8179 10.576 17.7699 9.376 17.7699 8.248C17.7939 7.12 17.8299 6.136 17.8779 5.296C17.9499 4.456 17.9979 3.856 18.0219 3.496C18.0699 2.872 18.2499 2.404 18.5619 2.092C18.8739 1.756 19.2219 1.528 19.6059 1.408C20.0139 1.288 20.3619 1.228 20.6499 1.228C20.9619 1.204 21.1179 1.192 21.1179 1.192ZM36.5538 20.056L34.8978 4.36C34.8978 4.36 34.8618 4.288 34.7898 4.144C34.7418 4 34.7298 3.808 34.7538 3.568C34.7778 3.328 34.9098 3.076 35.1498 2.812C35.4138 2.548 35.8578 2.308 36.4818 2.092C37.3218 1.78 38.3058 1.528 39.4338 1.336C40.5858 1.12 41.7978 1.06 43.0698 1.156C44.3658 1.252 45.6378 1.636 46.8858 2.308C47.6298 2.692 48.1818 3.244 48.5418 3.964C48.9018 4.684 49.1178 5.452 49.1898 6.268C49.2618 7.084 49.2618 7.864 49.1898 8.608C49.1418 9.352 49.0578 9.964 48.9378 10.444C48.8418 10.924 48.7938 11.164 48.7938 11.164C48.7938 11.164 48.7098 11.344 48.5418 11.704C48.3738 12.064 48.0498 12.472 47.5698 12.928C47.1138 13.36 46.4418 13.708 45.5538 13.972L50.6658 19.48C50.6658 19.48 50.7498 19.576 50.9178 19.768C51.0858 19.96 51.2178 20.2 51.3138 20.488C51.4338 20.752 51.4098 21.028 51.2418 21.316C51.0978 21.58 50.7018 21.808 50.0538 22C49.3818 22.192 48.7818 22.24 48.2538 22.144C47.7498 22.048 47.3298 21.892 46.9938 21.676C46.6818 21.46 46.4418 21.256 46.2738 21.064C46.1058 20.872 46.0218 20.776 46.0218 20.776L41.2698 14.908L42.4578 19.984C42.4578 19.984 42.4818 20.092 42.5298 20.308C42.5778 20.5 42.5538 20.728 42.4578 20.992C42.3618 21.256 42.1218 21.496 41.7378 21.712C41.3538 21.904 40.7418 22 39.9018 22C39.0618 22 38.4018 21.904 37.9218 21.712C37.4658 21.52 37.1418 21.292 36.9498 21.028C36.7578 20.764 36.6378 20.536 36.5898 20.344C36.5658 20.152 36.5538 20.056 36.5538 20.056ZM39.9738 4.324L40.8378 11.56C40.8378 11.56 40.9698 11.572 41.2338 11.596C41.5218 11.62 41.8578 11.596 42.2418 11.524C42.6498 11.452 43.0338 11.284 43.3938 11.02C43.7778 10.732 44.0898 10.3 44.3298 9.724C44.5698 9.124 44.6538 8.308 44.5818 7.276C44.5098 6.292 44.3178 5.572 44.0058 5.116C43.6938 4.636 43.3098 4.336 42.8538 4.216C42.3978 4.072 41.9178 4.036 41.4138 4.108C40.9098 4.156 40.4298 4.228 39.9738 4.324ZM65.7422 22C64.8542 22 64.1822 21.88 63.7262 21.64C63.2942 21.4 63.0062 21.124 62.8622 20.812C62.7182 20.5 62.6462 20.224 62.6462 19.984C62.6462 19.744 62.6462 19.624 62.6462 19.624L62.2142 4C62.2142 4 62.2022 3.88 62.1782 3.64C62.1542 3.4 62.2022 3.124 62.3222 2.812C62.4422 2.476 62.6942 2.188 63.0782 1.948C63.4622 1.684 64.0622 1.552 64.8782 1.552C65.9582 1.528 66.7742 1.684 67.3262 2.02C67.8782 2.332 68.2382 2.656 68.4062 2.992C68.5982 3.304 68.6942 3.46 68.6942 3.46L72.8342 10.984C72.8342 10.984 72.9302 10.768 73.1222 10.336C73.3382 9.88 73.5902 9.316 73.8782 8.644C74.1902 7.972 74.5022 7.288 74.8142 6.592C75.1262 5.896 75.4022 5.296 75.6422 4.792C75.8822 4.264 76.0382 3.928 76.1102 3.784C76.2302 3.544 76.4462 3.22 76.7582 2.812C77.0702 2.38 77.5142 1.984 78.0902 1.624C78.6902 1.264 79.4702 1.072 80.4302 1.048C81.1502 1.024 81.7022 1.108 82.0862 1.3C82.4702 1.468 82.7342 1.672 82.8782 1.912C83.0462 2.152 83.1422 2.368 83.1662 2.56C83.1902 2.752 83.2022 2.848 83.2022 2.848C83.2022 2.848 83.2022 3.16 83.2022 3.784C83.2022 4.384 83.2022 5.188 83.2022 6.196C83.2262 7.204 83.2382 8.308 83.2382 9.508C83.2382 10.708 83.2382 11.92 83.2382 13.144C83.2382 14.344 83.2382 15.448 83.2382 16.456C83.2622 17.464 83.2742 18.28 83.2742 18.904C83.2742 19.528 83.2742 19.852 83.2742 19.876C83.2742 19.9 83.2622 20.02 83.2382 20.236C83.2382 20.452 83.1542 20.704 82.9862 20.992C82.8182 21.256 82.5182 21.496 82.0862 21.712C81.6782 21.904 81.0662 22 80.2502 22C79.4342 22 78.8102 21.916 78.3782 21.748C77.9702 21.556 77.6822 21.352 77.5142 21.136C77.3462 20.896 77.2502 20.692 77.2262 20.524C77.2022 20.356 77.1902 20.272 77.1902 20.272C77.1902 20.272 77.1902 20.068 77.1902 19.66C77.1902 19.228 77.1902 18.7 77.1902 18.076C77.2142 17.428 77.2262 16.792 77.2262 16.168C77.2502 15.52 77.2622 14.98 77.2622 14.548C77.2622 14.116 77.2622 13.9 77.2622 13.9L77.5502 8.752L75.6782 12.748C75.6782 12.748 75.6062 12.88 75.4622 13.144C75.3422 13.408 75.1022 13.672 74.7422 13.936C74.3822 14.2 73.8422 14.344 73.1222 14.368C72.4262 14.392 71.8742 14.296 71.4662 14.08C71.0822 13.84 70.8062 13.612 70.6382 13.396C70.4942 13.156 70.4222 13.036 70.4222 13.036L68.0822 8.752C68.0822 8.752 68.0942 9.04 68.1182 9.616C68.1662 10.168 68.2142 10.9 68.2622 11.812C68.3102 12.7 68.3582 13.648 68.4062 14.656C68.4542 15.64 68.4902 16.576 68.5142 17.464C68.5622 18.328 68.5982 19.024 68.6222 19.552C68.6462 20.2 68.5142 20.704 68.2262 21.064C67.9382 21.4 67.6022 21.64 67.2182 21.784C66.8342 21.904 66.4862 21.976 66.1742 22C65.8862 22 65.7422 22 65.7422 22ZM86.0369 20.164C85.9649 19.348 85.9169 18.328 85.8929 17.104C85.8689 15.856 85.8569 14.524 85.8569 13.108C85.8569 11.692 85.8689 10.324 85.8929 9.004C85.9409 7.66 85.9889 6.472 86.0369 5.44C86.0849 4.408 86.1329 3.664 86.1809 3.208C86.2529 2.632 86.4569 2.2 86.7929 1.912C87.1289 1.6 87.5009 1.384 87.9089 1.264C88.3409 1.144 88.7009 1.084 88.9889 1.084C89.3009 1.06 89.4569 1.048 89.4569 1.048C89.4569 1.048 89.6009 1.072 89.8889 1.12C90.2009 1.144 90.5369 1.204 90.8969 1.3C91.2569 1.396 91.5089 1.564 91.6529 1.804C91.9649 2.284 92.1089 2.752 92.0849 3.208C92.0849 3.64 92.0609 4.204 92.0129 4.9C91.8689 6.7 91.7849 8.464 91.7609 10.192C91.7369 11.92 91.7369 13.492 91.7609 14.908C91.7849 16.324 91.8089 17.452 91.8329 18.292C91.8809 19.132 91.9049 19.552 91.9049 19.552C91.9049 19.552 91.8929 19.684 91.8689 19.948C91.8689 20.188 91.7969 20.464 91.6529 20.776C91.5089 21.088 91.2329 21.376 90.8249 21.64C90.4169 21.88 89.8169 22 89.0249 22C88.2329 22 87.6209 21.916 87.1889 21.748C86.7809 21.556 86.4929 21.34 86.3249 21.1C86.1809 20.836 86.0969 20.62 86.0729 20.452C86.0489 20.26 86.0369 20.164 86.0369 20.164ZM106.428 7.636C105.612 7.636 104.988 7.54 104.556 7.348C104.124 7.132 103.812 6.892 103.62 6.628C103.452 6.364 103.356 6.124 103.332 5.908C103.308 5.668 103.296 5.524 103.296 5.476C103.296 5.356 103.248 5.164 103.152 4.9C103.08 4.612 102.84 4.468 102.432 4.468C101.76 4.468 101.16 4.672 100.632 5.08C100.128 5.488 99.8518 6.088 99.8038 6.88C99.7558 7.672 99.9598 8.356 100.416 8.932C100.872 9.508 101.772 9.808 103.116 9.832C103.788 9.832 104.496 9.928 105.24 10.12C105.984 10.312 106.68 10.624 107.328 11.056C108 11.464 108.528 12.028 108.912 12.748C109.32 13.444 109.524 14.32 109.524 15.376C109.5 17.488 108.936 19.12 107.832 20.272C106.728 21.424 104.892 22 102.324 22C100.62 22 99.2518 21.796 98.2198 21.388C97.1878 20.956 96.4318 20.452 95.9518 19.876C95.4958 19.3 95.2558 18.784 95.2318 18.328C95.2078 17.872 95.2318 17.428 95.3038 16.996C95.3998 16.564 95.6518 16.192 96.0598 15.88C96.4918 15.568 97.1758 15.376 98.1118 15.304C99.0718 15.232 99.7558 15.316 100.164 15.556C100.572 15.772 100.824 16.024 100.92 16.312C101.04 16.6 101.1 16.78 101.1 16.852C101.1 16.924 101.124 17.104 101.172 17.392C101.244 17.656 101.364 17.92 101.532 18.184C101.724 18.424 101.988 18.544 102.324 18.544C102.828 18.544 103.26 18.34 103.62 17.932C103.98 17.524 104.208 16.864 104.304 15.952C104.472 14.152 103.572 13.252 101.604 13.252C101.124 13.252 100.5 13.18 99.7318 13.036C98.9878 12.868 98.2438 12.58 97.4998 12.172C96.7558 11.74 96.1318 11.14 95.6278 10.372C95.1238 9.604 94.8838 8.596 94.9078 7.348C94.9318 6.1 95.1598 5.08 95.5918 4.288C96.0238 3.472 96.5878 2.848 97.2838 2.416C98.0038 1.96 98.7838 1.636 99.6238 1.444C100.488 1.252 101.34 1.144 102.18 1.12C103.308 1.096 104.388 1.228 105.42 1.516C106.476 1.804 107.352 2.248 108.048 2.848C108.768 3.424 109.176 4.18 109.272 5.116C109.344 5.812 109.236 6.34 108.948 6.7C108.684 7.036 108.348 7.276 107.94 7.42C107.556 7.54 107.208 7.612 106.896 7.636C106.584 7.636 106.428 7.636 106.428 7.636ZM122.811 7.636C121.995 7.636 121.371 7.54 120.939 7.348C120.507 7.132 120.195 6.892 120.003 6.628C119.835 6.364 119.739 6.124 119.715 5.908C119.691 5.668 119.679 5.524 119.679 5.476C119.679 5.356 119.631 5.164 119.535 4.9C119.463 4.612 119.223 4.468 118.815 4.468C118.143 4.468 117.543 4.672 117.015 5.08C116.511 5.488 116.235 6.088 116.187 6.88C116.139 7.672 116.343 8.356 116.799 8.932C117.255 9.508 118.155 9.808 119.499 9.832C120.171 9.832 120.879 9.928 121.623 10.12C122.367 10.312 123.063 10.624 123.711 11.056C124.383 11.464 124.911 12.028 125.295 12.748C125.703 13.444 125.907 14.32 125.907 15.376C125.883 17.488 125.319 19.12 124.215 20.272C123.111 21.424 121.275 22 118.707 22C117.003 22 115.635 21.796 114.603 21.388C113.571 20.956 112.815 20.452 112.335 19.876C111.879 19.3 111.639 18.784 111.615 18.328C111.591 17.872 111.615 17.428 111.687 16.996C111.783 16.564 112.035 16.192 112.443 15.88C112.875 15.568 113.559 15.376 114.495 15.304C115.455 15.232 116.139 15.316 116.547 15.556C116.955 15.772 117.207 16.024 117.303 16.312C117.423 16.6 117.483 16.78 117.483 16.852C117.483 16.924 117.507 17.104 117.555 17.392C117.627 17.656 117.747 17.92 117.915 18.184C118.107 18.424 118.371 18.544 118.707 18.544C119.211 18.544 119.643 18.34 120.003 17.932C120.363 17.524 120.591 16.864 120.687 15.952C120.855 14.152 119.955 13.252 117.987 13.252C117.507 13.252 116.883 13.18 116.115 13.036C115.371 12.868 114.627 12.58 113.883 12.172C113.139 11.74 112.515 11.14 112.011 10.372C111.507 9.604 111.267 8.596 111.291 7.348C111.315 6.1 111.543 5.08 111.975 4.288C112.407 3.472 112.971 2.848 113.667 2.416C114.387 1.96 115.167 1.636 116.007 1.444C116.871 1.252 117.723 1.144 118.563 1.12C119.691 1.096 120.771 1.228 121.803 1.516C122.859 1.804 123.735 2.248 124.431 2.848C125.151 3.424 125.559 4.18 125.655 5.116C125.727 5.812 125.619 6.34 125.331 6.7C125.067 7.036 124.731 7.276 124.323 7.42C123.939 7.54 123.591 7.612 123.279 7.636C122.967 7.636 122.811 7.636 122.811 7.636ZM128.681 20.164C128.609 19.348 128.561 18.328 128.537 17.104C128.513 15.856 128.501 14.524 128.501 13.108C128.501 11.692 128.513 10.324 128.537 9.004C128.585 7.66 128.633 6.472 128.681 5.44C128.729 4.408 128.777 3.664 128.825 3.208C128.897 2.632 129.101 2.2 129.437 1.912C129.773 1.6 130.145 1.384 130.553 1.264C130.985 1.144 131.345 1.084 131.633 1.084C131.945 1.06 132.101 1.048 132.101 1.048C132.101 1.048 132.245 1.072 132.533 1.12C132.845 1.144 133.181 1.204 133.541 1.3C133.901 1.396 134.153 1.564 134.297 1.804C134.609 2.284 134.753 2.752 134.729 3.208C134.729 3.64 134.705 4.204 134.657 4.9C134.513 6.7 134.429 8.464 134.405 10.192C134.381 11.92 134.381 13.492 134.405 14.908C134.429 16.324 134.453 17.452 134.477 18.292C134.525 19.132 134.549 19.552 134.549 19.552C134.549 19.552 134.537 19.684 134.513 19.948C134.513 20.188 134.441 20.464 134.297 20.776C134.153 21.088 133.877 21.376 133.469 21.64C133.061 21.88 132.461 22 131.669 22C130.877 22 130.265 21.916 129.833 21.748C129.425 21.556 129.137 21.34 128.969 21.1C128.825 20.836 128.741 20.62 128.717 20.452C128.693 20.26 128.681 20.164 128.681 20.164ZM137.552 11.524C137.552 9.604 137.888 7.852 138.56 6.268C139.232 4.66 140.144 3.388 141.296 2.452C142.448 1.492 143.72 1.012 145.112 1.012C146.144 1.012 147.128 1.288 148.064 1.84C149 2.368 149.828 3.124 150.548 4.108C151.268 5.068 151.832 6.184 152.24 7.456C152.648 8.728 152.852 10.084 152.852 11.524C152.852 12.964 152.648 14.32 152.24 15.592C151.832 16.864 151.268 17.992 150.548 18.976C149.828 19.936 149 20.692 148.064 21.244C147.128 21.772 146.144 22.036 145.112 22.036C143.72 22.036 142.448 21.568 141.296 20.632C140.144 19.672 139.232 18.4 138.56 16.816C137.888 15.232 137.552 13.468 137.552 11.524ZM143.06 11.38C143.06 12.772 143.156 14.056 143.348 15.232C143.54 16.384 143.804 17.308 144.14 18.004C144.476 18.676 144.848 19.012 145.256 19.012C145.664 19.012 146.036 18.676 146.372 18.004C146.708 17.308 146.972 16.384 147.164 15.232C147.356 14.056 147.452 12.772 147.452 11.38C147.452 9.964 147.356 8.68 147.164 7.528C146.972 6.376 146.708 5.452 146.372 4.756C146.036 4.06 145.664 3.712 145.256 3.712C144.848 3.712 144.476 4.06 144.14 4.756C143.804 5.452 143.54 6.376 143.348 7.528C143.156 8.68 143.06 9.964 143.06 11.38ZM159.57 22C158.706 22 158.046 21.904 157.59 21.712C157.158 21.496 156.846 21.256 156.654 20.992C156.486 20.704 156.39 20.464 156.366 20.272C156.366 20.056 156.366 19.948 156.366 19.948C156.366 19.948 156.33 19.588 156.258 18.868C156.186 18.148 156.09 17.224 155.97 16.096C155.85 14.944 155.718 13.72 155.574 12.424C155.454 11.104 155.322 9.844 155.178 8.644C155.058 7.42 154.962 6.388 154.89 5.548C154.818 4.684 154.77 4.144 154.746 3.928C154.722 3.304 154.854 2.764 155.142 2.308C155.454 1.828 156.198 1.552 157.374 1.48C158.166 1.432 158.802 1.552 159.282 1.84C159.762 2.128 160.11 2.428 160.326 2.74C160.542 3.028 160.65 3.172 160.65 3.172L164.034 11.38L165.366 13.864L164.538 7.024C164.538 7.024 164.538 6.628 164.538 5.836C164.562 5.044 164.61 4.096 164.682 2.992C164.73 2.44 164.91 2.02 165.222 1.732C165.534 1.444 165.882 1.24 166.266 1.12C166.674 0.999999 167.022 0.939999 167.31 0.939999C167.622 0.915999 167.778 0.903999 167.778 0.903999C167.778 0.903999 167.91 0.915999 168.174 0.939999C168.462 0.963998 168.786 1.072 169.146 1.264C169.506 1.432 169.818 1.744 170.082 2.2C170.37 2.632 170.502 3.268 170.478 4.108C170.454 5.14 170.49 6.316 170.586 7.636C170.682 8.932 170.802 10.264 170.946 11.632C171.114 13 171.27 14.284 171.414 15.484C171.582 16.66 171.726 17.644 171.846 18.436C171.99 19.228 172.074 19.72 172.098 19.912C172.146 20.2 172.158 20.548 172.134 20.956C172.11 21.364 171.918 21.724 171.558 22.036C171.222 22.348 170.586 22.516 169.65 22.54C168.714 22.54 168.018 22.432 167.562 22.216C167.106 22 166.794 21.784 166.626 21.568C166.482 21.328 166.41 21.208 166.41 21.208L161.01 11.524C161.01 11.524 161.058 11.764 161.154 12.244C161.25 12.724 161.358 13.348 161.478 14.116C161.622 14.884 161.754 15.712 161.874 16.6C162.018 17.488 162.126 18.34 162.198 19.156C162.27 19.972 162.174 20.584 161.91 20.992C161.67 21.376 161.358 21.64 160.974 21.784C160.614 21.928 160.29 22 160.002 22C159.714 22 159.57 22 159.57 22Z" fill="white"/>
</svg>
