<svg width="262" height="32" viewBox="0 0 262 32" fill="none" xmlns="http://www.w3.org/2000/svg">
<path d="M32.48 5.16C31.9467 5.05333 31.3867 4.92 30.8 4.76C30.24 4.6 29.7333 4.4 29.28 4.16L29.52 3H38.32L38.08 4.16C37.5733 4.42667 37.0533 4.62667 36.52 4.76C36.0133 4.89333 35.5067 5.02667 35 5.16L22.84 31L20.28 31.48L18.44 9.72L7.6 31L5.12 31.48L3.64 5.16C2.6 4.92 1.65333 4.58667 0.8 4.16L1.04 3H11.36L11.12 4.16C10.5867 4.37333 10.0267 4.56 9.44 4.72C8.88 4.88 8.28 5.02667 7.64 5.16L8.16 21.36L8.04 26.56H8.12L10.56 21.28L19.88 3H21.28L22.96 21.28L23.16 26.48H23.24L25.36 21.2L32.48 5.16ZM38.1122 3.36V2.44C38.5122 2.28 38.9522 2.12 39.4322 1.96C39.9389 1.77333 40.4589 1.61333 40.9922 1.48C41.5255 1.32 42.0455 1.2 42.5522 1.12C43.0589 1.01333 43.5389 0.946665 43.9922 0.919999L44.8322 1.28L41.2322 18.08H41.4322C41.9389 17.0133 42.5122 16.0267 43.1522 15.12C43.7922 14.1867 44.4589 13.3867 45.1522 12.72C45.8722 12.0267 46.6189 11.4933 47.3922 11.12C48.1655 10.72 48.9522 10.52 49.7522 10.52C50.9789 10.52 51.8589 10.88 52.3922 11.6C52.9522 12.2933 53.2322 13.16 53.2322 14.2C53.2322 14.92 53.1655 15.6933 53.0322 16.52C52.8989 17.3467 52.7389 18.1467 52.5522 18.92L50.2722 28.76H53.2322V29.8C52.6989 30.2267 52.0589 30.5733 51.3122 30.84C50.5655 31.1067 49.8189 31.24 49.0722 31.24C48.2989 31.24 47.7655 31.08 47.4722 30.76C47.1789 30.44 47.0322 30.0933 47.0322 29.72C47.0322 29.24 47.0989 28.7067 47.2322 28.12C47.3655 27.5067 47.4989 26.8933 47.6322 26.28L49.0722 19.6C49.2589 18.7733 49.4189 18 49.5522 17.28C49.7122 16.56 49.7922 15.8667 49.7922 15.2C49.7922 14.5867 49.6589 14.0667 49.3922 13.64C49.1255 13.2133 48.7655 13 48.3122 13C47.4855 13 46.6855 13.2933 45.9122 13.88C45.1389 14.4667 44.4189 15.1733 43.7522 16C43.0855 16.8267 42.4989 17.6933 41.9922 18.6C41.4855 19.48 41.0989 20.2133 40.8322 20.8L38.7122 31H35.3522L40.8322 3.72L38.1122 3.36ZM63.2709 29C63.9909 29 64.7109 28.6667 65.4309 28C66.1509 27.3067 66.8309 26.48 67.4709 25.52C68.1109 24.56 68.6843 23.56 69.1909 22.52C69.6976 21.48 70.0976 20.6133 70.3909 19.92L71.6709 13.08C71.2976 12.8133 70.9376 12.6267 70.5909 12.52C70.2443 12.4133 69.7643 12.36 69.1509 12.36C67.9243 12.36 66.8043 12.7467 65.7909 13.52C64.8043 14.2667 63.9509 15.24 63.2309 16.44C62.5376 17.64 61.9909 18.9733 61.5909 20.44C61.2176 21.9067 61.0309 23.3467 61.0309 24.76C61.0309 26.12 61.1909 27.1733 61.5109 27.92C61.8576 28.64 62.4443 29 63.2709 29ZM69.5909 23.16C69.2443 24.12 68.8043 25.0933 68.2709 26.08C67.7643 27.0667 67.1643 27.96 66.4709 28.76C65.8043 29.56 65.0576 30.2133 64.2309 30.72C63.4043 31.2267 62.5243 31.48 61.5909 31.48C58.8176 31.48 57.4309 29.4667 57.4309 25.44C57.4309 23.5733 57.6976 21.76 58.2309 20C58.7643 18.2133 59.5376 16.6267 60.5509 15.24C61.5643 13.8533 62.7909 12.7467 64.2309 11.92C65.6976 11.0667 67.3509 10.64 69.1909 10.64C69.8576 10.64 70.3909 10.7067 70.7909 10.84C71.1909 10.9467 71.6709 11.12 72.2309 11.36C73.2976 10.8 74.4176 10.52 75.5909 10.52L71.9909 28.8H74.9109V29.8C74.3776 30.2267 73.7376 30.5733 72.9909 30.84C72.2443 31.1067 71.5109 31.24 70.7909 31.24C70.0176 31.24 69.4576 31.08 69.1109 30.76C68.7909 30.4133 68.6309 30.0533 68.6309 29.68C68.6309 29.2 68.7243 28.4133 68.9109 27.32C69.0976 26.2267 69.3776 24.84 69.7509 23.16H69.5909ZM79.2772 11.96C79.8105 11.6667 80.3705 11.4 80.9572 11.16C81.5705 10.92 82.1705 10.7333 82.7572 10.6L83.3972 7.56C83.7705 7.26667 84.1972 7.01333 84.6772 6.8C85.1839 6.56 85.7039 6.33333 86.2372 6.12L87.0772 6.6L86.1172 11H91.0772C91.1305 11.32 91.1305 11.6533 91.0772 12C91.0239 12.3467 90.8905 12.68 90.6772 13H85.7172L83.1972 24.6C83.0905 25.1067 83.0105 25.56 82.9572 25.96C82.9039 26.3333 82.8772 26.68 82.8772 27C82.8772 27.6933 83.0772 28.2 83.4772 28.52C83.8772 28.84 84.3172 29 84.7972 29C85.4639 29 86.1705 28.88 86.9172 28.64C87.6905 28.3733 88.3972 28.08 89.0372 27.76L89.4772 28.48C89.2372 28.8267 88.8772 29.1733 88.3972 29.52C87.9172 29.8667 87.3705 30.1867 86.7572 30.48C86.1705 30.7733 85.5439 31.0133 84.8772 31.2C84.2372 31.3867 83.6239 31.48 83.0372 31.48C81.8639 31.48 80.9439 31.2133 80.2772 30.68C79.6105 30.1467 79.2772 29.32 79.2772 28.2C79.2772 27.8267 79.3039 27.4133 79.3572 26.96C79.4372 26.5067 79.5305 26.04 79.6372 25.56L82.2772 13H79.2372L79.2772 11.96ZM135.8 5.16C135.267 5.05333 134.707 4.92 134.12 4.76C133.56 4.6 133.054 4.4 132.6 4.16L132.84 3H141.64L141.4 4.16C140.894 4.42667 140.374 4.62667 139.84 4.76C139.334 4.89333 138.827 5.02667 138.32 5.16L126.16 31L123.6 31.48L121.76 9.72L110.92 31L108.44 31.48L106.96 5.16C105.92 4.92 104.974 4.58667 104.12 4.16L104.36 3H114.68L114.44 4.16C113.907 4.37333 113.347 4.56 112.76 4.72C112.2 4.88 111.6 5.02667 110.96 5.16L111.48 21.36L111.36 26.56H111.44L113.88 21.28L123.2 3H124.6L126.28 21.28L126.48 26.48H126.56L128.68 21.2L135.8 5.16ZM151.43 27.44C151.19 27.9467 150.843 28.44 150.39 28.92C149.937 29.4 149.403 29.84 148.79 30.24C148.177 30.6133 147.483 30.9067 146.71 31.12C145.937 31.36 145.11 31.48 144.23 31.48C142.017 31.48 140.31 30.8533 139.11 29.6C137.937 28.32 137.35 26.56 137.35 24.32C137.35 22.4267 137.617 20.64 138.15 18.96C138.683 17.28 139.43 15.8133 140.39 14.56C141.35 13.3067 142.51 12.32 143.87 11.6C145.257 10.88 146.79 10.52 148.47 10.52C149.75 10.52 150.843 10.8533 151.75 11.52C152.683 12.16 153.15 13.12 153.15 14.4C153.15 16.2933 152.203 17.7867 150.31 18.88C148.443 19.9733 145.417 20.68 141.23 21C141.123 21.4533 141.043 21.8933 140.99 22.32C140.963 22.7467 140.95 23.16 140.95 23.56C140.95 25.16 141.35 26.4667 142.15 27.48C142.977 28.4933 144.177 29 145.75 29C146.257 29 146.75 28.92 147.23 28.76C147.737 28.6 148.203 28.4 148.63 28.16C149.083 27.92 149.483 27.6667 149.83 27.4C150.203 27.1333 150.523 26.8933 150.79 26.68L151.43 27.44ZM147.23 12.24C146.083 12.2667 145.017 12.8133 144.03 13.88C143.043 14.92 142.203 16.72 141.51 19.28C144.097 19.2 146.11 18.76 147.55 17.96C148.99 17.1333 149.71 16 149.71 14.56C149.71 14 149.537 13.48 149.19 13C148.87 12.52 148.217 12.2667 147.23 12.24ZM185.921 23.72H186.921C186.921 24.4667 186.841 25.4133 186.681 26.56C186.547 27.68 186.334 28.7733 186.041 29.84C185.507 30.1333 184.934 30.3867 184.321 30.6C183.707 30.8133 183.067 30.9867 182.401 31.12C181.734 31.2533 181.081 31.3467 180.441 31.4C179.801 31.4533 179.201 31.48 178.641 31.48C176.374 31.48 174.454 31.16 172.881 30.52C171.307 29.88 170.027 29.04 169.041 28C168.081 26.96 167.374 25.8 166.921 24.52C166.494 23.24 166.281 21.96 166.281 20.68C166.281 17.96 166.667 15.4933 167.441 13.28C168.214 11.04 169.307 9.13333 170.721 7.56C172.161 5.96 173.894 4.72 175.921 3.84C177.974 2.96 180.281 2.52 182.841 2.52C184.601 2.52 186.094 2.64 187.321 2.88C188.547 3.12 189.574 3.45333 190.401 3.88C190.321 4.30666 190.201 4.81333 190.041 5.4C189.907 5.96 189.734 6.56 189.521 7.2C189.334 7.84 189.134 8.46667 188.921 9.08C188.707 9.69333 188.507 10.2533 188.321 10.76H187.281L186.441 5C186.094 4.86667 185.561 4.77333 184.841 4.72C184.147 4.64 183.467 4.6 182.801 4.6C181.041 4.6 179.414 4.94667 177.921 5.64C176.427 6.30667 175.134 7.30667 174.041 8.64C172.947 9.97333 172.094 11.64 171.481 13.64C170.867 15.64 170.561 17.96 170.561 20.6C170.561 22.2533 170.841 23.6533 171.401 24.8C171.987 25.92 172.707 26.8267 173.561 27.52C174.441 28.2133 175.387 28.7067 176.401 29C177.414 29.2933 178.374 29.4267 179.281 29.4C180.187 29.4267 180.947 29.36 181.561 29.2C182.201 29.04 182.667 28.8667 182.961 28.68L185.921 23.72ZM190.007 23.56C190.007 22.1467 190.221 20.68 190.647 19.16C191.101 17.6133 191.781 16.2 192.687 14.92C193.594 13.64 194.727 12.5867 196.087 11.76C197.447 10.9333 199.034 10.52 200.847 10.52C202.927 10.52 204.487 11.16 205.527 12.44C206.594 13.72 207.127 15.6133 207.127 18.12C207.127 19.88 206.874 21.5733 206.367 23.2C205.861 24.8 205.154 26.2133 204.247 27.44C203.341 28.6667 202.247 29.6533 200.967 30.4C199.687 31.12 198.274 31.48 196.727 31.48C194.674 31.48 193.034 30.8267 191.807 29.52C190.607 28.1867 190.007 26.2 190.007 23.56ZM200.047 12.24C198.741 12.2667 197.674 12.6933 196.847 13.52C196.021 14.3467 195.367 15.3733 194.887 16.6C194.407 17.8267 194.074 19.1467 193.887 20.56C193.701 21.9733 193.607 23.2667 193.607 24.44C193.607 26.0133 193.954 27.2933 194.647 28.28C195.341 29.2667 196.274 29.76 197.447 29.76C198.381 29.76 199.207 29.4133 199.927 28.72C200.674 28 201.301 27.0667 201.807 25.92C202.341 24.7467 202.741 23.4267 203.007 21.96C203.301 20.4933 203.447 19.0133 203.447 17.52C203.447 15.9467 203.167 14.68 202.607 13.72C202.074 12.76 201.221 12.2667 200.047 12.24ZM218.679 24.96C219.639 23.36 220.492 21.8133 221.239 20.32C221.985 18.8 222.625 17.28 223.159 15.76C223.159 15.4667 223.119 15.0933 223.039 14.64C222.985 14.16 222.919 13.68 222.839 13.2C222.785 12.72 222.719 12.28 222.639 11.88C222.559 11.4533 222.492 11.16 222.439 11C223.212 10.68 223.999 10.52 224.799 10.52C225.625 10.4933 226.345 10.6533 226.959 11C226.559 12.6533 226.012 14.3467 225.319 16.08C224.625 17.7867 223.825 19.4933 222.919 21.2C222.039 22.9067 221.065 24.5867 219.999 26.24C218.959 27.8933 217.865 29.48 216.719 31L214.839 31.48L211.879 13.32L209.319 13V12C209.479 11.8933 209.719 11.76 210.039 11.6C210.359 11.4133 210.705 11.24 211.079 11.08C211.479 10.92 211.879 10.7867 212.279 10.68C212.705 10.5733 213.105 10.52 213.479 10.52C214.065 10.52 214.479 10.6667 214.719 10.96C214.985 11.2533 215.159 11.6133 215.239 12.04L217.079 25.04L217.279 27.56H217.359L218.679 24.96ZM241.86 27.44C241.62 27.9467 241.273 28.44 240.82 28.92C240.366 29.4 239.833 29.84 239.22 30.24C238.606 30.6133 237.913 30.9067 237.14 31.12C236.366 31.36 235.54 31.48 234.66 31.48C232.446 31.48 230.74 30.8533 229.54 29.6C228.366 28.32 227.78 26.56 227.78 24.32C227.78 22.4267 228.046 20.64 228.58 18.96C229.113 17.28 229.86 15.8133 230.82 14.56C231.78 13.3067 232.94 12.32 234.3 11.6C235.686 10.88 237.22 10.52 238.9 10.52C240.18 10.52 241.273 10.8533 242.18 11.52C243.113 12.16 243.58 13.12 243.58 14.4C243.58 16.2933 242.633 17.7867 240.74 18.88C238.873 19.9733 235.846 20.68 231.66 21C231.553 21.4533 231.473 21.8933 231.42 22.32C231.393 22.7467 231.38 23.16 231.38 23.56C231.38 25.16 231.78 26.4667 232.58 27.48C233.406 28.4933 234.606 29 236.18 29C236.686 29 237.18 28.92 237.66 28.76C238.166 28.6 238.633 28.4 239.06 28.16C239.513 27.92 239.913 27.6667 240.26 27.4C240.633 27.1333 240.953 26.8933 241.22 26.68L241.86 27.44ZM237.66 12.24C236.513 12.2667 235.446 12.8133 234.46 13.88C233.473 14.92 232.633 16.72 231.94 19.28C234.526 19.2 236.54 18.76 237.98 17.96C239.42 17.1333 240.14 16 240.14 14.56C240.14 14 239.966 13.48 239.62 13C239.3 12.52 238.646 12.2667 237.66 12.24ZM256.544 13.44C255.85 13.7067 255.064 14.3867 254.184 15.48C253.33 16.5467 252.57 18 251.904 19.84L249.504 31H246.064L249.784 13.32L247.344 12.96V11.96C248.25 11.5333 249.197 11.2133 250.184 11C251.17 10.76 252.064 10.6 252.864 10.52L253.664 11L252.544 16.32H252.704C253.477 14.56 254.424 13.16 255.544 12.12C256.664 11.0533 257.864 10.52 259.144 10.52C259.49 10.52 259.837 10.56 260.184 10.64C260.53 10.6933 260.864 10.8133 261.184 11C261.184 11.24 261.144 11.56 261.064 11.96C260.984 12.3333 260.864 12.72 260.704 13.12C260.57 13.52 260.41 13.9067 260.224 14.28C260.064 14.6267 259.89 14.8933 259.704 15.08L256.544 13.44Z" fill="#0F5009"/>
</svg>
